<svg xmlns="http://www.w3.org/2000/svg" viewBox="0 0 120 120" width="120" height="120">
  <circle cx="60" cy="60" r="56" fill="#F2A943"/>
  <circle cx="60" cy="60" r="56" fill="none" stroke="#fff" stroke-width="1" opacity="0.15"/>
  <path d="M46 30 L74 30 L68 42 L52 42 Z" fill="#fff"/>
  <rect x="58.5" y="42" width="3" height="16" fill="#fff"/>
  <rect x="48" y="57.5" width="24" height="3" rx="1.5" fill="#fff"/>
  <path d="M60 68 C55 65 45 64 35 66 L35 86 C45 84 55 85 60 88 Z" fill="#fff"/>
  <path d="M60 68 C65 65 75 64 85 66 L85 86 C75 84 65 85 60 88 Z" fill="#fff"/>
  <path d="M60 68 L60 88" stroke="#F2A943" stroke-width="1.5" opacity="0.3"/>
  <g stroke="#F2A943" stroke-width="1" fill="none" opacity="0.25">
    <line x1="40" y1="70" x2="55" y2="72"/>
    <line x1="40" y1="75" x2="55" y2="77"/>
    <line x1="65" y1="72" x2="80" y2="70"/>
    <line x1="65" y1="77" x2="80" y2="75"/>
  </g>
</svg>
